<?xml version="1.0" encoding="UTF-8"?> <svg xmlns="http://www.w3.org/2000/svg" xmlns:xlink="http://www.w3.org/1999/xlink" viewBox="0 0 576.3 153.47"><defs><style>.cls-1{fill:url(#Degradado_sin_nombre_2);}.cls-2{fill:url(#Degradado_sin_nombre_4);}.cls-3{fill:#434040;}</style><linearGradient id="Degradado_sin_nombre_2" x1="23.19" y1="15.24" x2="132.63" y2="123.24" gradientUnits="userSpaceOnUse"><stop offset="0" stop-color="#005df1"></stop><stop offset="0.97" stop-color="#de3963"></stop></linearGradient><linearGradient id="Degradado_sin_nombre_4" x1="10.51" y1="28.09" x2="119.95" y2="136.09" gradientUnits="userSpaceOnUse"><stop offset="0.08" stop-color="#005df1"></stop><stop offset="0.97" stop-color="#de3963"></stop></linearGradient></defs><g id="Ebene_2" data-name="Ebene 2"><g id="Identity"><path class="cls-1" d="M48.11,120.27,48,120l-.24,0a46.05,46.05,0,0,1-21.71-10.57c-10.36-9.14-15.18-22.66-13.93-39.1C13.53,52.06,25.94,33.86,41.67,27a32.84,32.84,0,0,1,15.08-2.77c.5,0,1,.06,1.5.12a34.06,34.06,0,0,1,14.39,4.77l.92.54c2.09,1.24,6.91,4.93,7.26,5.24l.42.37c.76.69,1.66,1.55,2.92,2.77l1.56,1.51C91.3,45,98.24,51.75,105.58,56.19c13,7.87,21.26,4.49,25.91.28,10.27-9.31,10.68-26.8,1-40.7A36.64,36.64,0,0,0,111.91,1.15,35.12,35.12,0,0,0,105,.06C97.48-.37,89.68,1.5,81.83,5.62a49.65,49.65,0,0,0-12.2,9.15,44.66,44.66,0,0,0-32.71,1.31C27,20.36,18.25,27.94,11.48,38A66.58,66.58,0,0,0,.23,69.42c-1.94,25.66,8.68,40.79,17.94,49a57.9,57.9,0,0,0,34.64,14.28l.78.05-.37-.69A88.66,88.66,0,0,1,48.11,120.27Zm74.56-97.65c6.17,8.83,6.52,19.81.8,25-1,.9-3.6,3.27-11.7-1.63-6.2-3.76-12.6-10-17.74-15l-.15-.14c-2.59-2.52-4.84-4.7-6.7-6.19a66.25,66.25,0,0,0-6-4.32,36.75,36.75,0,0,1,6.23-4.16C108.29,5.21,119.67,18.34,122.67,22.62Z"></path><path class="cls-2" d="M141.79,106h0c-1-6.06-4.25-10.57-9.26-12.7-7.48-3.18-15.55,1.69-26.71,8.43C95.66,107.82,83,115.45,67.18,119.45c-5.25-11.78-7.76-27.16-7.05-43.37C60.81,60.38,64.77,45,71,34l.21-.38-.38-.22A30.5,30.5,0,0,0,60.3,29.48l-.29,0-.15.26c-.84,1.57-1.66,3.26-2.45,5-5,11.26-8.18,25.38-9.08,40.85-1.67,29,8.68,51.38,12.43,56.95,4.38,6.49,8.54,10.89,13.1,13.85a41.56,41.56,0,0,0,20.3,7c11.21.65,22.41-3.89,33.26-13.49C137.46,131,143.5,116.76,141.79,106Zm-22.13,25h0c-13.58,12-26.47,13.76-39.42,5.37a29.22,29.22,0,0,1-6.72-6.21c15.93-4.62,28.86-12.43,38.34-18.16a115.28,115.28,0,0,1,11.83-6.6c3.31-1.42,4.23-1.07,4.25-1.06.43.18,1.74.74,2.19,3.59C131.07,113.82,127.41,124.07,119.66,130.93Z"></path><path class="cls-3" d="M258.83,60.75H240.77a17.76,17.76,0,0,0-2-6.24,15.81,15.81,0,0,0-3.91-4.68,17.41,17.41,0,0,0-5.51-3,21.21,21.21,0,0,0-6.74-1,20.21,20.21,0,0,0-11.42,3.23,21,21,0,0,0-7.54,9.4A37.35,37.35,0,0,0,201,73.41a37.71,37.71,0,0,0,2.7,15.17A19.54,19.54,0,0,0,222.47,101a22.57,22.57,0,0,0,6.66-.95,17.38,17.38,0,0,0,5.46-2.78,16.14,16.14,0,0,0,4-4.48,17.85,17.85,0,0,0,2.2-6l18.06.09A32.94,32.94,0,0,1,255.35,98a33.93,33.93,0,0,1-7.47,9.61,35,35,0,0,1-11.13,6.67,40.66,40.66,0,0,1-14.57,2.46A39.7,39.7,0,0,1,202,111.66a36.13,36.13,0,0,1-14-14.8q-5.13-9.67-5.13-23.45t5.2-23.5a36.3,36.3,0,0,1,14.09-14.78,39.71,39.71,0,0,1,20-5.09A43.59,43.59,0,0,1,235.8,32.1a34.6,34.6,0,0,1,11.16,6,31.47,31.47,0,0,1,7.93,9.62A36.14,36.14,0,0,1,258.83,60.75Z"></path><path class="cls-3" d="M299.93,116.86a32.22,32.22,0,0,1-16.59-4.1,27.72,27.72,0,0,1-10.78-11.46,36.79,36.79,0,0,1-3.8-17.09A37,37,0,0,1,272.56,67a27.6,27.6,0,0,1,10.78-11.46,35.61,35.61,0,0,1,33.18,0A27.67,27.67,0,0,1,327.3,67a37,37,0,0,1,3.79,17.17,36.79,36.79,0,0,1-3.79,17.09,27.79,27.79,0,0,1-10.78,11.46A32.24,32.24,0,0,1,299.93,116.86Zm.08-13.61a10.88,10.88,0,0,0,7.3-2.49,15.33,15.33,0,0,0,4.43-6.82,30,30,0,0,0,1.51-9.86,30,30,0,0,0-1.51-9.85,15.51,15.51,0,0,0-4.43-6.84,10.8,10.8,0,0,0-7.3-2.52,11.08,11.08,0,0,0-7.4,2.52,15.27,15.27,0,0,0-4.49,6.84,29.75,29.75,0,0,0-1.51,9.85,29.77,29.77,0,0,0,1.51,9.86,15.09,15.09,0,0,0,4.49,6.82A11.17,11.17,0,0,0,300,103.25Z"></path><path class="cls-3" d="M365.89,116.65a23.69,23.69,0,0,1-13.05-3.73,25.31,25.31,0,0,1-9.23-11q-3.41-7.27-3.4-17.87,0-10.87,3.5-18.11a25.28,25.28,0,0,1,9.34-10.85,23.89,23.89,0,0,1,12.8-3.6,19.62,19.62,0,0,1,8.88,1.79,17.6,17.6,0,0,1,5.77,4.45,23.14,23.14,0,0,1,3.36,5.22h.54V31.19h17.52v84.43H384.6V105.48h-.74a22.39,22.39,0,0,1-3.48,5.22,17.63,17.63,0,0,1-5.81,4.26A20.11,20.11,0,0,1,365.89,116.65Zm5.56-14a11.29,11.29,0,0,0,7.2-2.33,14.72,14.72,0,0,0,4.53-6.54A27.76,27.76,0,0,0,384.77,84a27.73,27.73,0,0,0-1.57-9.81,14,14,0,0,0-4.53-6.43,11.57,11.57,0,0,0-7.22-2.27,11.36,11.36,0,0,0-7.29,2.35,14.43,14.43,0,0,0-4.5,6.51A28.21,28.21,0,0,0,358.14,84a28.34,28.34,0,0,0,1.54,9.75,14.74,14.74,0,0,0,4.5,6.6A11.22,11.22,0,0,0,371.45,102.68Z"></path><path class="cls-3" d="M445.16,116.86a33.62,33.62,0,0,1-16.8-4,26.94,26.94,0,0,1-10.82-11.3,37.14,37.14,0,0,1-3.79-17.33,37,37,0,0,1,3.79-17.15,28,28,0,0,1,10.7-11.5,31,31,0,0,1,16.22-4.12,33.57,33.57,0,0,1,11.69,2,26.58,26.58,0,0,1,9.48,6,27.36,27.36,0,0,1,6.33,10,40.17,40.17,0,0,1,2.27,14.12v4.82H420.76V77.57H457.7a13.55,13.55,0,0,0-1.65-6.72,12.06,12.06,0,0,0-4.56-4.6,13.31,13.31,0,0,0-6.74-1.66,13.54,13.54,0,0,0-7.07,1.83,13.07,13.07,0,0,0-4.8,4.91,13.91,13.91,0,0,0-1.78,6.82V88.5a17.59,17.59,0,0,0,1.76,8.12,12.45,12.45,0,0,0,5,5.27,15,15,0,0,0,7.63,1.86,16.6,16.6,0,0,0,5.36-.83,11.07,11.07,0,0,0,4.16-2.47,10.67,10.67,0,0,0,2.64-4l16.25,1.07a22.21,22.21,0,0,1-5.05,10.21,25.47,25.47,0,0,1-9.82,6.76A37,37,0,0,1,445.16,116.86Z"></path><path class="cls-3" d="M503.25,31.19v84.43H485.69V31.19Z"></path><path class="cls-3" d="M528.11,139.24a36.2,36.2,0,0,1-6.25-.51,25.67,25.67,0,0,1-4.8-1.26l4-13.15a15.79,15.79,0,0,0,7.85.76c2.13-.45,3.81-2.11,5-5l1-2.68L512.23,52.3H530.7l13.11,46.5h.66l13.24-46.5,18.59.08-24.61,70.09a29.58,29.58,0,0,1-4.81,8.84,20.49,20.49,0,0,1-7.64,5.85A26.93,26.93,0,0,1,528.11,139.24Z"></path></g></g></svg> 